<svg xmlns="http://www.w3.org/2000/svg" width="64" height="64" viewBox="0 0 64 64"><defs><clipPath id="bt"><rect width="64" height="64" rx="14.34" ry="14.34"/></clipPath></defs><g clip-path="url(#bt)"><rect width="64" height="64" fill="#0A0713"/><polygon points="40.23,18.63 44.53,20.45 45.27,25.50 41.69,28.73 37.39,26.91 36.65,21.86" fill="#FFC93C"/><polygon points="37.77,15.74 45.96,19.20 47.35,28.80 40.56,34.95 32.38,31.49 30.99,21.88" fill="none" stroke="#FF2E86" stroke-width="2.88" stroke-linejoin="round"/><polygon points="35.32,12.86 47.38,17.95 49.43,32.11 39.43,41.16 27.37,36.06 25.32,21.91" fill="none" stroke="#2BE8FF" stroke-width="2.88" stroke-linejoin="round"/><polygon points="32.87,9.97 48.80,16.71 51.52,35.41 38.30,47.37 22.37,40.64 19.65,21.93" fill="none" stroke="#7A3CFF" stroke-width="2.88" stroke-linejoin="round"/><polygon points="30.41,7.08 50.23,15.46 53.60,38.71 37.17,53.59 17.36,45.21 13.98,21.96" fill="none" stroke="#FF2E86" stroke-width="2.88" stroke-linejoin="round"/><polygon points="27.96,4.20 51.65,14.21 55.69,42.01 36.04,59.80 12.35,49.79 8.31,21.99" fill="none" stroke="#2BE8FF" stroke-width="2.88" stroke-linejoin="round"/></g></svg>
