<?xml version="1.0" encoding="UTF-8"?>
<!-- GENERATED by site/og.build.ts — do not edit by hand; rerun the generator.
     Social-share card (1200×630). OG crawlers don't render SVG, so this is
     rasterized to og.png at author time and committed. The card is the tagline
     drawn as an equation: a boomfile page feeds the real brand icon — the
     collapsing hex tunnel (index.html's canvas `master` mark, reproduced from
     the same P params) — and the machine comes out the far side. -->
<svg xmlns="http://www.w3.org/2000/svg" width="1200" height="630" viewBox="0 0 1200 630">
  <defs>
    <radialGradient id="vig" cx="50%" cy="58%" r="75%">
      <stop offset="0%" stop-color="#14111F"/>
      <stop offset="100%" stop-color="#08060F"/>
    </radialGradient>
    <radialGradient id="fuzz" cx="50%" cy="50%" r="50%">
      <stop offset="0%" stop-color="#FFF4D6" stop-opacity=".95"/>
      <stop offset="22%" stop-color="#FFC93C" stop-opacity=".72"/>
      <stop offset="50%" stop-color="#FF683C" stop-opacity=".34"/>
      <stop offset="78%" stop-color="#FF2E86" stop-opacity=".12"/>
      <stop offset="100%" stop-color="#FF2E86" stop-opacity="0"/>
    </radialGradient>
    <pattern id="dots" width="26" height="26" patternUnits="userSpaceOnUse">
      <circle cx="4" cy="4" r="1.4" fill="#ECE8F7" opacity=".10"/>
    </pattern>
    <symbol id="krak" viewBox="0 0 240 120">
      <g fill="currentColor">
        <circle cx="60" cy="60" r="16"/><circle cx="84" cy="52" r="12"/>
        <circle cx="44" cy="44" r="10"/><circle cx="104" cy="64" r="9"/>
        <circle cx="70" cy="84" r="10"/><circle cx="28" cy="60" r="7"/>
        <circle cx="120" cy="50" r="6"/><circle cx="96" cy="86" r="6"/>
        <circle cx="52" cy="24" r="5"/><circle cx="132" cy="70" r="5"/>
        <circle cx="16" cy="40" r="4"/><circle cx="140" cy="86" r="4"/>
        <circle cx="110" cy="26" r="5"/><circle cx="150" cy="60" r="3"/>
        <circle cx="160" cy="44" r="2.5"/><circle cx="170" cy="72" r="2"/>
        <circle cx="80" cy="10" r="3"/><circle cx="126" cy="14" r="2"/>
      </g>
    </symbol>
    <symbol id="bolt" viewBox="0 0 80 110">
      <path fill="currentColor" stroke="#000" stroke-width="4" stroke-linejoin="round"
        d="M14 2 L66 2 L44 38 L72 38 L12 106 L30 52 L4 52 Z"/>
    </symbol>
    <symbol id="spark" viewBox="0 0 40 40">
      <path fill="currentColor" d="M20 0 L24 16 L40 20 L24 24 L20 40 L16 24 L0 20 L16 16 Z"/>
    </symbol>
  </defs>

  <!-- backdrop -->
  <rect width="1200" height="630" fill="url(#vig)"/>
  <rect width="1200" height="630" fill="url(#dots)"/>

  <!-- ===== the equation: boomfile → BOOM portal → machine ===== -->

  <!-- 1 · the file goes in -->
  <g transform="translate(150 372) rotate(-4) scale(2.35) translate(-32 -32)">
      <path d="M13 5 H39 L55 21 V57 Q55 60 52 60 H13 Q10 60 10 57 V8 Q10 5 13 5 Z" fill="#FBF7FF" stroke="#05040A" stroke-width="3.2" stroke-linejoin="round"/>
      <path d="M39 5 V18 Q39 21 42 21 H55 Z" fill="#DCD5EC" stroke="#05040A" stroke-width="3.2" stroke-linejoin="round"/>
      <rect x="17" y="30" width="24" height="3.6" rx="1.8" fill="#2BE8FF"/>
      <rect x="17" y="38" width="30" height="3.6" rx="1.8" fill="#FF2E86"/>
      <rect x="17" y="46" width="19" height="3.6" rx="1.8" fill="#7A3CFF"/>
    </g>
  <g transform="translate(352 372) scale(1.05)" paint-order="stroke" stroke="#05040A" stroke-width="3" stroke-linejoin="round">
      <path d="M-26 -9 H6 V-22 L30 0 L6 22 V9 H-26 Z" fill="#FFC93C"/>
    </g>

  <!-- 2 · the BOOM portal: the brand hex-tunnel icon imploding to a solar core -->
  <g transform="translate(600 372)">
    <!-- warm implosion glow -->
    <circle cx="0" cy="0" r="250" fill="url(#fuzz)"/>
    <!-- burst rays -->
    <g fill="#FFC93C" opacity="0.9"><polygon points="89.6,-10.08 257.6,0 89.6,10.08" transform="rotate(0)"/><polygon points="89.6,-10.08 257.6,0 89.6,10.08" transform="rotate(22.5)"/><polygon points="89.6,-10.08 257.6,0 89.6,10.08" transform="rotate(45)"/><polygon points="89.6,-10.08 257.6,0 89.6,10.08" transform="rotate(67.5)"/><polygon points="89.6,-10.08 257.6,0 89.6,10.08" transform="rotate(90)"/><polygon points="89.6,-10.08 257.6,0 89.6,10.08" transform="rotate(112.5)"/><polygon points="89.6,-10.08 257.6,0 89.6,10.08" transform="rotate(135)"/><polygon points="89.6,-10.08 257.6,0 89.6,10.08" transform="rotate(157.5)"/><polygon points="89.6,-10.08 257.6,0 89.6,10.08" transform="rotate(180)"/><polygon points="89.6,-10.08 257.6,0 89.6,10.08" transform="rotate(202.5)"/><polygon points="89.6,-10.08 257.6,0 89.6,10.08" transform="rotate(225)"/><polygon points="89.6,-10.08 257.6,0 89.6,10.08" transform="rotate(247.5)"/><polygon points="89.6,-10.08 257.6,0 89.6,10.08" transform="rotate(270)"/><polygon points="89.6,-10.08 257.6,0 89.6,10.08" transform="rotate(292.5)"/><polygon points="89.6,-10.08 257.6,0 89.6,10.08" transform="rotate(315)"/><polygon points="89.6,-10.08 257.6,0 89.6,10.08" transform="rotate(337.5)"/></g>
    <g fill="#FF2E86" opacity="0.55"><polygon points="89.6,-10.08 168,0 89.6,10.08" transform="rotate(11.25)"/><polygon points="89.6,-10.08 168,0 89.6,10.08" transform="rotate(33.75)"/><polygon points="89.6,-10.08 168,0 89.6,10.08" transform="rotate(56.25)"/><polygon points="89.6,-10.08 168,0 89.6,10.08" transform="rotate(78.75)"/><polygon points="89.6,-10.08 168,0 89.6,10.08" transform="rotate(101.25)"/><polygon points="89.6,-10.08 168,0 89.6,10.08" transform="rotate(123.75)"/><polygon points="89.6,-10.08 168,0 89.6,10.08" transform="rotate(146.25)"/><polygon points="89.6,-10.08 168,0 89.6,10.08" transform="rotate(168.75)"/><polygon points="89.6,-10.08 168,0 89.6,10.08" transform="rotate(191.25)"/><polygon points="89.6,-10.08 168,0 89.6,10.08" transform="rotate(213.75)"/><polygon points="89.6,-10.08 168,0 89.6,10.08" transform="rotate(236.25)"/><polygon points="89.6,-10.08 168,0 89.6,10.08" transform="rotate(258.75)"/><polygon points="89.6,-10.08 168,0 89.6,10.08" transform="rotate(281.25)"/><polygon points="89.6,-10.08 168,0 89.6,10.08" transform="rotate(303.75)"/><polygon points="89.6,-10.08 168,0 89.6,10.08" transform="rotate(326.25)"/><polygon points="89.6,-10.08 168,0 89.6,10.08" transform="rotate(348.75)"/></g>
    <!-- hex tunnel rings (the icon) -->
    <polygon points="42.41,-68.96 64.62,-59.57 68.41,-33.51 49.99,-16.84 27.78,-26.23 23.99,-52.29" fill="#FFC93C" stroke="#05040A" stroke-width="3"/>
    <polygon points="29.77,-83.84 71.96,-66 79.15,-16.48 44.15,15.2 1.96,-2.64 -5.23,-52.16" fill="none" stroke="#05040A" stroke-width="20.85" stroke-linejoin="round"/><polygon points="29.77,-83.84 71.96,-66 79.15,-16.48 44.15,15.2 1.96,-2.64 -5.23,-52.16" fill="none" stroke="#FF2E86" stroke-width="14.85" stroke-linejoin="round"/>
    <polygon points="17.12,-98.72 79.3,-72.43 89.9,0.55 38.32,47.24 -23.86,20.95 -34.46,-52.03" fill="none" stroke="#05040A" stroke-width="20.85" stroke-linejoin="round"/><polygon points="17.12,-98.72 79.3,-72.43 89.9,0.55 38.32,47.24 -23.86,20.95 -34.46,-52.03" fill="none" stroke="#2BE8FF" stroke-width="14.85" stroke-linejoin="round"/>
    <polygon points="4.47,-113.59 86.64,-78.85 100.64,17.58 32.49,79.27 -49.68,44.53 -63.68,-51.9" fill="none" stroke="#05040A" stroke-width="20.85" stroke-linejoin="round"/><polygon points="4.47,-113.59 86.64,-78.85 100.64,17.58 32.49,79.27 -49.68,44.53 -63.68,-51.9" fill="none" stroke="#7A3CFF" stroke-width="14.85" stroke-linejoin="round"/>
    <polygon points="-8.17,-128.47 93.98,-85.28 111.39,34.61 26.65,111.31 -75.5,68.12 -92.91,-51.77" fill="none" stroke="#05040A" stroke-width="20.85" stroke-linejoin="round"/><polygon points="-8.17,-128.47 93.98,-85.28 111.39,34.61 26.65,111.31 -75.5,68.12 -92.91,-51.77" fill="none" stroke="#FF2E86" stroke-width="14.85" stroke-linejoin="round"/>
    <polygon points="-20.82,-143.35 101.32,-91.71 122.14,51.64 20.82,143.35 -101.32,91.71 -122.14,-51.64" fill="none" stroke="#05040A" stroke-width="20.85" stroke-linejoin="round"/><polygon points="-20.82,-143.35 101.32,-91.71 122.14,51.64 20.82,143.35 -101.32,91.71 -122.14,-51.64" fill="none" stroke="#2BE8FF" stroke-width="14.85" stroke-linejoin="round"/>
    <!-- krackle + comic sparks spilling over the rim -->
    <g style="color:#000">
      <use href="#krak" width="240" height="120" transform="translate(-232 -196) scale(.62)"/>
      <use href="#krak" width="240" height="120" transform="translate(118 116) rotate(180) scale(.58)"/>
    </g>
    <use href="#bolt" width="80" height="110" style="color:#FFC93C" transform="translate(-190 -120) rotate(-24) scale(.8)"/>
    <use href="#spark" width="40" height="40" style="color:#FBF7FF" transform="translate(150 -150)"/>
  </g>

  <!-- 3 · the machine comes out -->
  <g transform="translate(848 372) scale(1.05)" paint-order="stroke" stroke="#05040A" stroke-width="3" stroke-linejoin="round">
      <path d="M-26 -9 H6 V-22 L30 0 L6 22 V9 H-26 Z" fill="#FFC93C"/>
    </g>
  <g transform="translate(1035 372) rotate(3) scale(2.85) translate(-32 -32)">
      <rect x="5" y="7" width="54" height="38" rx="4" fill="#0A0713" stroke="#05040A" stroke-width="3.2"/>
      <rect x="10" y="12" width="44" height="28" rx="2" fill="#161327"/>
      <path d="M10 14 a2 2 0 0 1 2 -2 h40 a2 2 0 0 1 2 2 v5 h-44 z" fill="#2A2442"/>
      <circle cx="16" cy="15.6" r="1.7" fill="#FF2E86"/><circle cx="21.5" cy="15.6" r="1.7" fill="#FFC93C"/><circle cx="27" cy="15.6" r="1.7" fill="#3AE6A0"/>
      <rect x="14" y="25" width="27" height="3" rx="1.5" fill="#2BE8FF"/>
      <rect x="14" y="31" width="20" height="3" rx="1.5" fill="#7A3CFF"/>
      <rect x="14" y="37" width="13" height="3" rx="1.5" fill="#FF2E86"/>
      <rect x="28" y="45" width="8" height="6.5" fill="#05040A"/>
      <rect x="17" y="52" width="30" height="4.6" rx="2.3" fill="#05040A"/>
    </g>

  <!-- ===== identity block, upper-left ===== -->
  <!-- solar kicker card: the site's category definer -->
  <g transform="translate(70 40) rotate(-1.4)">
    <rect x="0" y="0" width="486" height="54" fill="#FFC93C" stroke="#000" stroke-width="4" rx="4"/>
    <text x="22" y="37" font-family="'Arial Narrow', Impact, sans-serif" font-weight="700"
      font-size="25" letter-spacing="2" fill="#05040A">DECLARATIVE DEV-MACHINE SETUP</text>
  </g>
  <!-- BOOMTUBE wordmark: BOOM in the four brand signals, TUBE the calm cyan anchor -->
  <g font-family="Impact, 'Arial Narrow Bold', sans-serif" letter-spacing="1">
    <g fill="#05040A" transform="translate(6 6)"><text x="72" y="186" font-size="104">BOOMTUBE</text></g>
    <g paint-order="stroke" stroke="#000" stroke-width="5">
      <text x="72" y="186" font-size="104"><tspan fill="#FF2E86">B</tspan><tspan fill="#2BE8FF">O</tspan><tspan fill="#7A3CFF">O</tspan><tspan fill="#FFC93C">M</tspan><tspan fill="#2BE8FF">TUBE</tspan></text>
    </g>
  </g>

  <!-- ===== tagline, along the bottom ===== -->
  <text x="600" y="592" text-anchor="middle" font-family="'Trebuchet MS', Verdana, sans-serif"
    font-weight="700" font-size="34" fill="#ECE8F7">The file goes in <tspan fill="#FF2E86">&#8594;</tspan> the machine comes out</text>
</svg>
