<?xml version="1.0" encoding="UTF-8"?>
<!-- GENERATED by site/og.build.ts — do not edit by hand; rerun the generator.
     Social-share card (1200×630). OG crawlers don't render SVG, so this is
     rasterized to og.png at author time and committed. The portal is the real
     brand icon: the collapsing hex tunnel (index.html's canvas `master` mark),
     rendered here as static polygons from the same P params — magenta/cyan/violet
     rings imploding to a solar throat, the four brand signals on near-black. -->
<svg xmlns="http://www.w3.org/2000/svg" width="1200" height="630" viewBox="0 0 1200 630">
  <defs>
    <radialGradient id="vig" cx="70%" cy="40%" r="72%">
      <stop offset="0%" stop-color="#12101E"/>
      <stop offset="100%" stop-color="#08060F"/>
    </radialGradient>
    <radialGradient id="fuzz" cx="50%" cy="50%" r="50%">
      <stop offset="0%" stop-color="#FFF4D6" stop-opacity=".95"/>
      <stop offset="22%" stop-color="#FFC93C" stop-opacity=".72"/>
      <stop offset="50%" stop-color="#FF683C" stop-opacity=".34"/>
      <stop offset="78%" stop-color="#FF2E86" stop-opacity=".12"/>
      <stop offset="100%" stop-color="#FF2E86" stop-opacity="0"/>
    </radialGradient>
    <pattern id="dots" width="26" height="26" patternUnits="userSpaceOnUse">
      <circle cx="4" cy="4" r="1.4" fill="#ECE8F7" opacity=".10"/>
    </pattern>
    <symbol id="krak" viewBox="0 0 240 120">
      <g fill="currentColor">
        <circle cx="60" cy="60" r="16"/><circle cx="84" cy="52" r="12"/>
        <circle cx="44" cy="44" r="10"/><circle cx="104" cy="64" r="9"/>
        <circle cx="70" cy="84" r="10"/><circle cx="28" cy="60" r="7"/>
        <circle cx="120" cy="50" r="6"/><circle cx="96" cy="86" r="6"/>
        <circle cx="52" cy="24" r="5"/><circle cx="132" cy="70" r="5"/>
        <circle cx="16" cy="40" r="4"/><circle cx="140" cy="86" r="4"/>
        <circle cx="110" cy="26" r="5"/><circle cx="150" cy="60" r="3"/>
        <circle cx="160" cy="44" r="2.5"/><circle cx="170" cy="72" r="2"/>
        <circle cx="80" cy="10" r="3"/><circle cx="126" cy="14" r="2"/>
      </g>
    </symbol>
    <symbol id="bolt" viewBox="0 0 80 110">
      <path fill="currentColor" stroke="#000" stroke-width="4" stroke-linejoin="round"
        d="M14 2 L66 2 L44 38 L72 38 L12 106 L30 52 L4 52 Z"/>
    </symbol>
    <symbol id="spark" viewBox="0 0 40 40">
      <path fill="currentColor" d="M20 0 L24 16 L40 20 L24 24 L20 40 L16 24 L0 20 L16 16 Z"/>
    </symbol>
  </defs>

  <!-- backdrop -->
  <rect width="1200" height="630" fill="url(#vig)"/>
  <rect width="1200" height="630" fill="url(#dots)"/>

  <!-- the boom tube: the brand hex-tunnel icon imploding to a solar core -->
  <g transform="translate(905 300)">
    <!-- warm implosion glow -->
    <circle cx="0" cy="-6" r="405" fill="url(#fuzz)"/>
    <!-- burst rays -->
    <g fill="#FFC93C" opacity="0.9"><polygon points="124.8,-14.04 358.8,0 124.8,14.04" transform="rotate(0)"/><polygon points="124.8,-14.04 358.8,0 124.8,14.04" transform="rotate(22.5)"/><polygon points="124.8,-14.04 358.8,0 124.8,14.04" transform="rotate(45)"/><polygon points="124.8,-14.04 358.8,0 124.8,14.04" transform="rotate(67.5)"/><polygon points="124.8,-14.04 358.8,0 124.8,14.04" transform="rotate(90)"/><polygon points="124.8,-14.04 358.8,0 124.8,14.04" transform="rotate(112.5)"/><polygon points="124.8,-14.04 358.8,0 124.8,14.04" transform="rotate(135)"/><polygon points="124.8,-14.04 358.8,0 124.8,14.04" transform="rotate(157.5)"/><polygon points="124.8,-14.04 358.8,0 124.8,14.04" transform="rotate(180)"/><polygon points="124.8,-14.04 358.8,0 124.8,14.04" transform="rotate(202.5)"/><polygon points="124.8,-14.04 358.8,0 124.8,14.04" transform="rotate(225)"/><polygon points="124.8,-14.04 358.8,0 124.8,14.04" transform="rotate(247.5)"/><polygon points="124.8,-14.04 358.8,0 124.8,14.04" transform="rotate(270)"/><polygon points="124.8,-14.04 358.8,0 124.8,14.04" transform="rotate(292.5)"/><polygon points="124.8,-14.04 358.8,0 124.8,14.04" transform="rotate(315)"/><polygon points="124.8,-14.04 358.8,0 124.8,14.04" transform="rotate(337.5)"/></g>
    <g fill="#FF2E86" opacity="0.55"><polygon points="124.8,-14.04 234,0 124.8,14.04" transform="rotate(11.25)"/><polygon points="124.8,-14.04 234,0 124.8,14.04" transform="rotate(33.75)"/><polygon points="124.8,-14.04 234,0 124.8,14.04" transform="rotate(56.25)"/><polygon points="124.8,-14.04 234,0 124.8,14.04" transform="rotate(78.75)"/><polygon points="124.8,-14.04 234,0 124.8,14.04" transform="rotate(101.25)"/><polygon points="124.8,-14.04 234,0 124.8,14.04" transform="rotate(123.75)"/><polygon points="124.8,-14.04 234,0 124.8,14.04" transform="rotate(146.25)"/><polygon points="124.8,-14.04 234,0 124.8,14.04" transform="rotate(168.75)"/><polygon points="124.8,-14.04 234,0 124.8,14.04" transform="rotate(191.25)"/><polygon points="124.8,-14.04 234,0 124.8,14.04" transform="rotate(213.75)"/><polygon points="124.8,-14.04 234,0 124.8,14.04" transform="rotate(236.25)"/><polygon points="124.8,-14.04 234,0 124.8,14.04" transform="rotate(258.75)"/><polygon points="124.8,-14.04 234,0 124.8,14.04" transform="rotate(281.25)"/><polygon points="124.8,-14.04 234,0 124.8,14.04" transform="rotate(303.75)"/><polygon points="124.8,-14.04 234,0 124.8,14.04" transform="rotate(326.25)"/><polygon points="124.8,-14.04 234,0 124.8,14.04" transform="rotate(348.75)"/></g>
    <!-- hex tunnel rings (the icon) -->
    <polygon points="87.66,-142.52 133.55,-123.12 141.37,-69.26 103.3,-34.8 57.41,-54.2 49.59,-108.06" fill="#FFC93C" stroke="#05040A" stroke-width="3"/>
    <polygon points="61.52,-173.27 148.72,-136.4 163.58,-34.06 91.25,31.41 4.05,-5.46 -10.81,-107.8" fill="none" stroke="#05040A" stroke-width="36.69" stroke-linejoin="round"/><polygon points="61.52,-173.27 148.72,-136.4 163.58,-34.06 91.25,31.41 4.05,-5.46 -10.81,-107.8" fill="none" stroke="#FF2E86" stroke-width="30.69" stroke-linejoin="round"/>
    <polygon points="35.38,-204.01 163.89,-149.68 185.79,1.13 79.19,97.62 -49.31,43.29 -71.21,-107.53" fill="none" stroke="#05040A" stroke-width="36.69" stroke-linejoin="round"/><polygon points="35.38,-204.01 163.89,-149.68 185.79,1.13 79.19,97.62 -49.31,43.29 -71.21,-107.53" fill="none" stroke="#2BE8FF" stroke-width="30.69" stroke-linejoin="round"/>
    <polygon points="9.25,-234.76 179.05,-162.96 208,36.33 67.14,163.83 -102.67,92.04 -131.61,-107.26" fill="none" stroke="#05040A" stroke-width="36.69" stroke-linejoin="round"/><polygon points="9.25,-234.76 179.05,-162.96 208,36.33 67.14,163.83 -102.67,92.04 -131.61,-107.26" fill="none" stroke="#7A3CFF" stroke-width="30.69" stroke-linejoin="round"/>
    <polygon points="-16.89,-265.5 194.22,-176.25 230.21,71.53 55.08,230.04 -156.03,140.78 -192.02,-106.99" fill="none" stroke="#05040A" stroke-width="36.69" stroke-linejoin="round"/><polygon points="-16.89,-265.5 194.22,-176.25 230.21,71.53 55.08,230.04 -156.03,140.78 -192.02,-106.99" fill="none" stroke="#FF2E86" stroke-width="30.69" stroke-linejoin="round"/>
    <polygon points="-43.03,-296.25 209.39,-189.53 252.42,106.72 43.03,296.25 -209.39,189.53 -252.42,-106.72" fill="none" stroke="#05040A" stroke-width="36.69" stroke-linejoin="round"/><polygon points="-43.03,-296.25 209.39,-189.53 252.42,106.72 43.03,296.25 -209.39,189.53 -252.42,-106.72" fill="none" stroke="#2BE8FF" stroke-width="30.69" stroke-linejoin="round"/>
    <!-- krackle spilling over the rim -->
    <g style="color:#000">
      <use href="#krak" width="240" height="120" transform="translate(-300 -260) scale(.9)"/>
      <use href="#krak" width="240" height="120" transform="translate(150 170) rotate(180) scale(.85)"/>
    </g>
    <use href="#bolt" width="80" height="110" style="color:#FFC93C" transform="translate(-268 -150) rotate(-24)"/>
    <use href="#spark" width="40" height="40" style="color:#FBF7FF" transform="translate(250 -230)"/>
  </g>

  <!-- title block, left -->
  <g transform="translate(70 0)">
    <!-- solar kicker card: the site's category definer -->
    <g transform="translate(4 150) rotate(-1.4)">
      <rect x="0" y="0" width="486" height="54" fill="#FFC93C" stroke="#000" stroke-width="4" rx="4"/>
      <text x="22" y="37" font-family="'Arial Narrow', Impact, sans-serif" font-weight="700"
        font-size="25" letter-spacing="2" fill="#05040A">DECLARATIVE DEV-MACHINE SETUP</text>
    </g>
    <!-- BOOMTUBE wordmark: BOOM in the four brand signals, TUBE the calm cyan anchor -->
    <g font-family="Impact, 'Arial Narrow Bold', sans-serif" letter-spacing="1">
      <!-- hard comic offset shadow -->
      <g fill="#05040A" transform="translate(7 7)">
        <text x="0" y="340" font-size="150">BOOM</text>
        <text x="0" y="470" font-size="150">TUBE</text>
      </g>
      <g paint-order="stroke" stroke="#000" stroke-width="6">
        <text x="0" y="340" font-size="150"><tspan fill="#FF2E86">B</tspan><tspan fill="#2BE8FF">O</tspan><tspan fill="#7A3CFF">O</tspan><tspan fill="#FFC93C">M</tspan></text>
        <text x="0" y="470" font-size="150" fill="#2BE8FF">TUBE</text>
      </g>
    </g>
    <!-- tagline -->
    <text x="6" y="532" font-family="'Trebuchet MS', Verdana, sans-serif" font-weight="700"
      font-size="30" fill="#ECE8F7">The file goes in <tspan fill="#FF2E86">&#8594;</tspan> the machine comes out</text>
  </g>
</svg>
